<!-- Created with Inkscape (http://www.inkscape.org/) -->
<svg xmlns:rdf="http://www.w3.org/1999/02/22-rdf-syntax-ns#" xmlns="http://www.w3.org/2000/svg" version="1.1" xmlns:cc="http://creativecommons.org/ns#" xmlns:dc="http://purl.org/dc/elements/1.1/" viewBox="0 0 306.78 188.68">
	<metadata>
		<rdf:RDF>
			<cc:Work rdf:about="">
				<dc:format>image/svg+xml</dc:format>
				<dc:type rdf:resource="http://purl.org/dc/dcmitype/StillImage"/>
				<dc:title/>
			</cc:Work>
		</rdf:RDF>
	</metadata>
	<g transform="translate(-206.60876,-306.59568)">
		<path style="baseline-shift:baseline;block-progression:tb;fill:#ffffff;color:#000000;direction:ltr;text-indent:0;text-align:start;enable-background:accumulate;text-transform:none;" d="m358.2,308.05c-17.503-0.80293-32.326,14.97-33.577,31.577-8.0557,0.65155-48.741-10.403-67.278,2.0313-12.414-4.1974-26.796-5.505-39.086-0.43087-9.9363,6.1352-9.834,19.474-8.9572,29.882,0.74132,37.76-0.13152,75.529,0.24733,113.29,16.941-0.15032,34.346,1.1147,50.689-4.0318,9.5739,7.6729,22.623,2.3662,33.731,3.6932,8.139,0.0993,16.551,1.0648,24.406-1.5696,0.48595-3.1331,3.8209,0.46036,5.7553,0.0307,6.1521,1.4065,12.835,1.0754,18.805,2.2775,12.711,14.223,38.995,11.086,48.258-5.3859,3.7061,3.7123,9.8191,3.7937,14.681,4.9858,6.4612,0.75323,13.216-0.19643,19.02-3.0161,10.476,5.5246,22.684,1.2426,33.854,3.2623,4.3838-0.008,8.4764-2.5389,12.311-3.724,13.049,8.0324,34.439,3.2647,38.902-12.618,1.937-12.781-0.36033-25.789,0.73327-38.655,0.048-24.007,2.0795-48.701-3.8417-72.141-4.5334-9.2124-14.813-13.409-19.943-22.252-15.788-17.694-48.242-15.7-61.277,3.9702-11.121-4.009-23.986-1.9055-35.178-0.49243-1.3587-16.171-15.527-31.001-32.254-30.684z"/>
		<path style="baseline-shift:baseline;block-progression:tb;fill:#373748;color:#000000;direction:ltr;text-indent:0;text-align:start;enable-background:accumulate;text-transform:none;" d="m357.23,327.97c-6.0988,0.0864-11.617,5.0013-12.483,11.031-0.85188,5.2043,1.7512,10.713,6.315,13.315,1.1731,0.6866,2.4405,1.1887,3.7694,1.4849,0.021,36.392-0.041,72.79,0.0326,109.18,0.12686,3.435,1.0136,7.2632,3.8999,9.4153,3.1936,2.2754,7.6029,2.3614,11.178,0.97907,2.8923-1.238,4.7181-4.1895,5.189-7.2288,0.77074-4.1322,0.24492-8.3537,0.39163-12.532-0.0324-13.183-0.0655-26.371-0.098-39.554,6.5685-0.12006,13.352,0.0631,19.614-2.154,3.4403-1.2954,6.4158-3.9674,7.5062-7.5388,1.5907-4.7279,0.94137-9.8135,1.077-14.719-0.0515-5.8707,0.17681-11.743-0.14685-17.607-0.33232-3.8428-1.889-7.8379-5.2217-10.035-4.0298-2.8004-9.1308-3.311-13.919-3.7041-4.893-0.34423-9.8005-0.29228-14.702-0.31003,0.0552,34.828,0.21044,69.655,0.22847,104.48-0.16021,1.8913-0.18757,4.1804-1.7786,5.4991-1.4823,0.91152-3.3677,0.65958-4.9932,0.42426-1.6799-0.52951-2.1795-2.3918-2.3824-3.9489-0.45759-3.4089-0.0852-6.8786-0.21214-10.313v-100.34c5.9426-1.2402,10.509-7.032,10.248-13.119-0.1052-5.6968-4.3395-11.032-9.9049-12.336-1.1725-0.30615-2.3937-0.41221-3.6062-0.3753zm0.58745,6.0702c3.617-0.0216,6.8759,3.2308,6.8371,6.8698,0.11333,3.4038-2.6024,6.6451-5.9886,7.0493-3.276,0.51807-6.7583-1.608-7.6856-4.7974-1.1162-3.4019,0.75266-7.5174,4.21-8.681,0.84314-0.31169,1.731-0.45335,2.6272-0.44058zm99.391,8.9584c-4.8892,0.0157-10.16,1.4529-13.381,5.3033-3.3033,3.9077-4.0932,9.2908-3.9326,14.278v45.624h-24.003v-50.161h-6.1028v106.41h6.1028v-50.161h24.003v50.161h6.0702c0.0199-34.9-0.0321-69.812,0.0489-104.71,0.11626-3.0115,0.84994-6.3274,3.2799-8.322,3.1631-2.4535,7.4361-2.4795,11.259-2.2029,3.1641,0.26678,6.6011,1.6122,8.0446,4.6342,0.7105,1.3806,1.0555,2.9131,1.2238,4.4384-4.8507,0.45913-9.7953,2.803-12.271,7.1472-2.4855,4.107-2.6844,9.1132-2.5456,13.805-0.00003,28.379,0,56.751,0,85.13h5.9396v-50.079h24.167c0,16.696-0.00002,33.383,0,50.079h5.9233c-0.0293-29.978,0.0648-59.95-0.0326-89.927-0.20617-4.8105-1.9518-9.8836-5.9234-12.858-2.6096-2.0193-5.9071-2.9757-9.1542-3.3451-0.42909-4.9077-2.5853-10.014-6.9514-12.63-3.4765-2.1771-7.7225-2.7-11.765-2.6108zm-108.99,14.98c-1.4424,0.002-2.8818,0.008-4.3242,0.0163-7.2027,0.11383-14.687,0.19052-21.409,3.0351-4.5697,2.0044-8.2227,5.9538-9.7743,10.704-2.3256,6.5639-2.2337,13.66-2.3008,20.544-0.0223,5.3095-0.00053,10.617-0.0163,15.926h-29.943v-44.058h22.567v-6.1028h-28.67v106.41h28.67v-6.0865h-22.567v-44.074h29.943c0.10041,8.5918-0.23591,17.2,0.29372,25.782,0.42238,5.6936,1.4593,11.661,5.0585,16.252,3.0904,3.86,7.8193,6.0733,12.63,6.9514,6.5161,1.3416,13.22,1.2054,19.842,1.2402v-6.2171c-7.3953-0.0566-15,0.17859-22.111-2.1213-2.9917-1.0354-5.7328-3.1494-6.935-6.1355-2.114-4.6863-2.2925-9.9676-2.4966-15.045-0.16535-9.1348,0.0119-18.278-0.0489-27.414,0.0237-7.3737-0.11327-14.757,0.13053-22.127,0.25951-4.9315,0.65971-10.067,3.1493-14.425,1.7334-2.8087,4.8483-4.5145,8.012-5.2543,6.1489-1.6268,12.623-1.5268,18.961-1.5828,1.0424,0.19594,1.6178-0.0813,1.3381-1.2075v-5.0095zm-119.01,0.0653,0,0.13054,0,0.13054,0,106.15c7.8045-0.0491,15.879,0.22101,23.318-2.464,4.6141-1.7404,8.4873-5.3868,10.215-10.035,2.3861-5.9463,2.5229-12.497,2.6272-18.831,0.0767-13.936-0.009-27.87,0.0327-41.806-0.11078-6.6676-0.0704-13.538-2.3171-19.891-1.3356-3.8056-3.8539-7.2202-7.343-9.2848-4.5538-2.8093-9.9967-3.4702-15.241-3.8836-3.7571-0.23965-7.5291-0.20325-11.292-0.21212zm146.08,5.6622c0.13573,0.002,0.27224,0.0148,0.40794,0.0164,5.8406,0.19238,11.816,0.1224,17.427,1.9092,1.9683,0.69423,3.7362,2.2384,4.161,4.3405,1.0974,3.8649,0.51266,7.9589,0.66902,11.928-0.0589,5.8121,0.16086,11.621-0.13054,17.427-0.18966,2.425-0.8665,5.2126-3.182,6.4782-3.0733,1.759-6.7086,1.8966-10.15,2.2682-3.0231,0.2373-6.0575,0.30873-9.089,0.32635-0.0392-14.893-0.075-29.801-0.11423-44.694zm97.025,0.40795c0.32921-0.003,0.65239-0.009,0.97908,0,3.2324-0.0174,6.8261,0.52534,9.1053,3.0351,2.0634,2.2475,2.6261,5.423,2.6924,8.3873,0.0414,4.5016-0.0144,9.0086,0.0163,13.511v19.157h-24.167c0.0422-11.356-0.0762-22.718,0.0816-34.071,0.21316-3.3147,1.5307-6.8983,4.6179-8.5178,2.0346-1.1238,4.3696-1.4816,6.674-1.5012zm-237,0.11423c0.14411,0.003,0.28016,0.0135,0.42426,0.0163,5.5839,0.23374,11.408,0.39581,16.497,2.9209,2.7839,1.4997,4.588,4.2844,5.3848,7.2777,1.7386,5.8968,1.6298,12.155,1.6807,18.26,0.007,14.004,0.0668,27.998-0.0326,42.002-0.19014,5.5484-0.40704,11.348-2.8719,16.399-1.3887,2.6768-3.9697,4.5191-6.8371,5.3359-4.5244,1.5086-9.3937,1.6239-14.099,1.8602-0.50348-0.35508,0.042-1.1414-0.14686-1.6318v-92.44z"/>
	</g>
</svg>
